<?xml version="1.0" encoding="UTF-8" standalone="no"?>
<svg
   xmlns:dc="http://purl.org/dc/elements/1.1/"
   xmlns:cc="http://creativecommons.org/ns#"
   xmlns:rdf="http://www.w3.org/1999/02/22-rdf-syntax-ns#"
   xmlns:svg="http://www.w3.org/2000/svg"
   xmlns="http://www.w3.org/2000/svg"
   xmlns:sodipodi="http://sodipodi.sourceforge.net/DTD/sodipodi-0.dtd"
   xmlns:inkscape="http://www.inkscape.org/namespaces/inkscape"
   width="1920"
   height="3200"
   viewBox="0 0 508.00001 846.66667"
   version="1.1"
   id="svg8"
   inkscape:version="1.0.2 (e86c870879, 2021-01-15, custom)"
   sodipodi:docname="background.svg"
   inkscape:export-filename="C:\Users\teamg\Desktop\линии.png"
   inkscape:export-xdpi="96"
   inkscape:export-ydpi="96">
  <defs
     id="defs2">
    <clipPath
       clipPathUnits="userSpaceOnUse"
       id="clipPath893">
      <rect
         style="fill:#000000;stroke-width:0.99972;stroke-linecap:round"
         id="rect895"
         width="296.83319"
         height="140.99603"
         x="-0.1165421"
         y="-129.46634"
         transform="scale(1,-1)" />
    </clipPath>
    <clipPath
       clipPathUnits="userSpaceOnUse"
       id="clipPath897">
      <rect
         style="fill:#000000;stroke-width:0.99972;stroke-linecap:round"
         id="rect899"
         width="296.83319"
         height="140.99603"
         x="-0.1165421"
         y="-129.46634"
         transform="scale(1,-1)" />
    </clipPath>
    <clipPath
       clipPathUnits="userSpaceOnUse"
       id="clipPath901">
      <rect
         style="fill:#000000;stroke-width:0.99972;stroke-linecap:round"
         id="rect903"
         width="296.83319"
         height="140.99603"
         x="-0.1165421"
         y="-129.46634"
         transform="scale(1,-1)" />
    </clipPath>
    <clipPath
       clipPathUnits="userSpaceOnUse"
       id="clipPath905">
      <rect
         style="fill:#000000;stroke-width:0.99972;stroke-linecap:round"
         id="rect907"
         width="296.83319"
         height="140.99603"
         x="-0.1165421"
         y="-129.46634"
         transform="scale(1,-1)" />
    </clipPath>
    <clipPath
       clipPathUnits="userSpaceOnUse"
       id="clipPath909">
      <rect
         style="fill:#000000;stroke-width:0.99972;stroke-linecap:round"
         id="rect911"
         width="296.83319"
         height="140.99603"
         x="-0.1165421"
         y="-129.46634"
         transform="scale(1,-1)" />
    </clipPath>
    <clipPath
       clipPathUnits="userSpaceOnUse"
       id="clipPath913">
      <rect
         style="fill:#000000;stroke-width:0.99972;stroke-linecap:round"
         id="rect915"
         width="296.83319"
         height="140.99603"
         x="-0.1165421"
         y="-129.46634"
         transform="scale(1,-1)" />
    </clipPath>
    <clipPath
       clipPathUnits="userSpaceOnUse"
       id="clipPath917">
      <rect
         style="fill:#000000;stroke-width:0.99972;stroke-linecap:round"
         id="rect919"
         width="296.83319"
         height="140.99603"
         x="-0.1165421"
         y="-129.46634"
         transform="scale(1,-1)" />
    </clipPath>
    <clipPath
       clipPathUnits="userSpaceOnUse"
       id="clipPath921">
      <rect
         style="fill:#000000;stroke-width:0.99972;stroke-linecap:round"
         id="rect923"
         width="296.83319"
         height="140.99603"
         x="-0.1165421"
         y="-129.46634"
         transform="scale(1,-1)" />
    </clipPath>
    <clipPath
       clipPathUnits="userSpaceOnUse"
       id="clipPath925">
      <rect
         style="fill:#000000;stroke-width:0.99972;stroke-linecap:round"
         id="rect927"
         width="296.83319"
         height="140.99603"
         x="-0.1165421"
         y="-129.46634"
         transform="scale(1,-1)" />
    </clipPath>
    <clipPath
       clipPathUnits="userSpaceOnUse"
       id="clipPath929">
      <rect
         style="fill:#000000;stroke-width:0.99972;stroke-linecap:round"
         id="rect931"
         width="296.83319"
         height="140.99603"
         x="-0.1165421"
         y="-129.46634"
         transform="scale(1,-1)" />
    </clipPath>
    <clipPath
       clipPathUnits="userSpaceOnUse"
       id="clipPath933">
      <rect
         style="fill:#000000;stroke-width:0.99972;stroke-linecap:round"
         id="rect935"
         width="296.83319"
         height="140.99603"
         x="-0.1165421"
         y="-129.46634"
         transform="scale(1,-1)" />
    </clipPath>
    <clipPath
       clipPathUnits="userSpaceOnUse"
       id="clipPath937">
      <rect
         style="fill:#000000;stroke-width:0.99972;stroke-linecap:round"
         id="rect939"
         width="296.83319"
         height="140.99603"
         x="-0.1165421"
         y="-129.46634"
         transform="scale(1,-1)" />
    </clipPath>
  </defs>
  <sodipodi:namedview
     id="base"
     pagecolor="#ffffff"
     bordercolor="#666666"
     borderopacity="1.0"
     inkscape:pageopacity="0.0"
     inkscape:pageshadow="2"
     inkscape:zoom="0.49497475"
     inkscape:cx="999.22568"
     inkscape:cy="96.956474"
     inkscape:document-units="mm"
     inkscape:current-layer="layer1"
     inkscape:document-rotation="0"
     showgrid="false"
     inkscape:window-width="1920"
     inkscape:window-height="1027"
     inkscape:window-x="-8"
     inkscape:window-y="-8"
     inkscape:window-maximized="1"
     units="px" />
  <metadata
     id="metadata5">
    <rdf:RDF>
      <cc:Work
         rdf:about="">
        <dc:format>image/svg+xml</dc:format>
        <dc:type
           rdf:resource="http://purl.org/dc/dcmitype/StillImage" />
        <dc:title></dc:title>
      </cc:Work>
    </rdf:RDF>
  </metadata>
  <g
     inkscape:label="Слой 1"
     inkscape:groupmode="layer"
     id="layer1">
    <g
       id="g1665"
       transform="matrix(1.7095176,0,0,-1.7095176,0.98770112,517.31703)">
      <path
         style="fill:none;stroke:#add7ed;stroke-width:0.5;stroke-linecap:butt;stroke-linejoin:miter;stroke-miterlimit:4;stroke-dasharray:none;stroke-opacity:1"
         d="M 0.53075401,77.234778 C 47.102218,71.623012 45.461582,35.522816 95.832628,52.115438 149.31144,69.731783 161.77209,32.080964 195.45238,21.918785 c 22.36385,-6.747728 41.66758,8.461071 60.18312,9.886124 27.43032,2.111181 48.16542,-20.490671 48.16542,-20.490671"
         id="path833-69"
         sodipodi:nodetypes="csssc"
         clip-path="url(#clipPath937)" />
      <path
         style="fill:none;stroke:#ffa8af;stroke-width:0.5;stroke-linecap:butt;stroke-linejoin:miter;stroke-miterlimit:4;stroke-dasharray:none;stroke-opacity:1"
         d="M 0.07608438,92.436402 C 46.647548,86.824633 43.136026,50.457168 93.507072,67.04979 146.98588,84.666135 147.4194,50.22255 181.09969,40.060371 c 22.36385,-6.747728 38.19308,5.788375 56.70862,7.213428 C 265.23863,49.38498 298.021,7.7342739 298.021,7.7342739"
         id="path833-6-8"
         sodipodi:nodetypes="csssc"
         clip-path="url(#clipPath933)" />
      <path
         style="fill:none;stroke:#82db7d;stroke-width:0.5;stroke-linecap:butt;stroke-linejoin:miter;stroke-miterlimit:4;stroke-dasharray:none;stroke-opacity:1"
         d="M 0.41813341,107.99973 C 46.989597,102.38796 37.865415,69.227727 88.236461,85.820349 141.71527,103.4367 136.53613,65.251336 170.21642,55.089157 c 22.36385,-6.747728 46.41146,9.278626 64.45944,-2.408274 23.81247,-15.419678 63.07198,-54.7327813 63.07198,-54.7327813"
         id="path833-6-9-19"
         sodipodi:nodetypes="csssc"
         clip-path="url(#clipPath929)" />
      <path
         style="fill:none;stroke:#ffe66d;stroke-width:0.5;stroke-linecap:butt;stroke-linejoin:miter;stroke-miterlimit:4;stroke-dasharray:none;stroke-opacity:1"
         d="M -0.1165421,124.70381 C 46.454922,119.09204 37.33074,85.931806 87.701786,102.52443 141.18059,120.14078 131.1906,77.679103 164.87089,67.516924 c 22.36385,-6.747728 34.99255,2.165935 49.75961,-5.615509 26.13602,-18.582852 48.434,-72.347123 85.80534,-55.7478332"
         id="path833-6-9-1-1"
         sodipodi:nodetypes="csscc"
         clip-path="url(#clipPath925)" />
      <path
         style="fill:none;stroke:#add7ed;stroke-width:0.5;stroke-linecap:butt;stroke-linejoin:miter;stroke-miterlimit:4;stroke-dasharray:none;stroke-opacity:1"
         d="M 0.53075401,79.351446 C 47.102218,73.73968 45.461582,37.639484 95.832628,54.232106 149.31144,71.848451 161.77209,34.197632 195.45238,24.035453 c 22.36385,-6.747728 41.66758,8.461071 60.18312,9.886124 27.43032,2.111181 46.98424,-17.797591 46.98424,-17.797591"
         id="path1023-6"
         sodipodi:nodetypes="csssc"
         clip-path="url(#clipPath921)" />
      <path
         style="fill:none;stroke:#ffa8af;stroke-width:0.5;stroke-linecap:butt;stroke-linejoin:miter;stroke-miterlimit:4;stroke-dasharray:none;stroke-opacity:1"
         d="M 0.07608438,95.082237 C 46.647548,89.470468 43.136026,53.103003 93.507072,69.695625 146.98588,87.31197 147.4194,52.868385 181.09969,42.706206 c 22.36385,-6.747728 38.19308,5.788375 56.70862,7.213428 27.43032,2.111181 61.48837,-41.9018779 61.48837,-41.9018779"
         id="path1025-2"
         sodipodi:nodetypes="csssc"
         clip-path="url(#clipPath917)" />
      <path
         style="fill:none;stroke:#ffe66d;stroke-width:0.5;stroke-linecap:butt;stroke-linejoin:miter;stroke-miterlimit:4;stroke-dasharray:none;stroke-opacity:1"
         d="M -0.1165421,127.34966 C 46.454922,121.73789 37.33074,88.577641 87.701786,105.17028 141.18059,122.78663 131.1906,80.324938 164.87089,70.162759 187.23474,63.415031 199.8959,72.389983 214.6305,64.54725 238.80021,51.609706 267.89804,-12.525955 300.5251,8.1028008"
         id="path1029-8"
         sodipodi:nodetypes="csscc"
         clip-path="url(#clipPath913)" />
      <path
         style="fill:none;stroke:#82db7d;stroke-width:0.5;stroke-linecap:butt;stroke-linejoin:miter;stroke-miterlimit:4;stroke-dasharray:none;stroke-opacity:1"
         d="M 0.41813341,110.11641 C 46.989597,104.50464 37.865415,71.344395 88.236461,87.937017 141.71527,105.55338 136.53613,67.368004 170.21642,57.205825 c 22.36385,-6.747728 45.80794,8.289151 64.45944,-2.408274 25.18569,-14.445058 63.87517,-56.0556992 63.87517,-56.0556992"
         id="path1033-1"
         sodipodi:nodetypes="csssc"
         clip-path="url(#clipPath909)" />
      <path
         style="fill:none;stroke:#add7ed;stroke-width:0.5;stroke-linecap:butt;stroke-linejoin:miter;stroke-miterlimit:4;stroke-dasharray:none;stroke-opacity:1"
         d="M 0.53075401,81.997281 C 47.102218,76.385515 45.461582,40.285319 95.832628,56.877941 149.31144,74.494286 161.77209,36.843467 195.45238,26.681288 c 22.36385,-6.747728 41.66758,8.461071 60.18312,9.886124 27.43032,2.111181 47.22048,-18.600792 47.22048,-18.600792"
         id="path1039-3"
         sodipodi:nodetypes="csssc"
         clip-path="url(#clipPath905)" />
      <path
         style="fill:none;stroke:#ffa8af;stroke-width:0.5;stroke-linecap:butt;stroke-linejoin:miter;stroke-miterlimit:4;stroke-dasharray:none;stroke-opacity:1"
         d="M 0.07608438,97.198905 C 46.647548,91.587136 43.136026,55.219671 93.507072,71.812293 146.98588,89.428638 147.4194,54.985053 181.09969,44.822874 c 22.36385,-6.747728 38.19308,5.788375 56.70862,7.213428 27.43032,2.111181 62.71679,-43.9335012 62.71679,-43.9335012"
         id="path1041-0"
         sodipodi:nodetypes="csssc"
         clip-path="url(#clipPath901)" />
      <path
         style="fill:none;stroke:#82db7d;stroke-width:0.5;stroke-linecap:butt;stroke-linejoin:miter;stroke-miterlimit:4;stroke-dasharray:none;stroke-opacity:1"
         d="M 0.41813341,112.76226 C 46.989597,107.15049 37.865415,73.99023 88.236461,90.582852 141.71527,108.19923 136.53613,70.013839 170.21642,59.85166 c 22.36385,-6.747728 45.56733,7.858253 64.45944,-2.408274 26.19908,-14.237349 65.24534,-58.8905221 65.24534,-58.8905221"
         id="path1043-5"
         sodipodi:nodetypes="csssc"
         clip-path="url(#clipPath897)" />
      <path
         style="fill:none;stroke:#ffe66d;stroke-width:0.5;stroke-linecap:butt;stroke-linejoin:miter;stroke-miterlimit:4;stroke-dasharray:none;stroke-opacity:1"
         d="M -0.1165421,129.46634 C 46.454922,123.85457 37.33074,90.694309 87.701786,107.28696 141.18059,124.90331 131.1906,82.441606 164.87089,72.279427 c 22.36385,-6.747728 34.9949,2.170386 49.75961,-5.615509 28.88898,-14.403122 53.31523,-76.967213 85.72924,-57.3799412"
         id="path1045-9"
         sodipodi:nodetypes="csscc"
         clip-path="url(#clipPath893)" />
    </g>
    <rect
       style="opacity:1;fill:#f2f2f2;fill-opacity:0.45490196;stroke-width:0.507833"
       id="rect1745"
       width="508.09271"
       height="845.9339"
       x="0.78845888"
       y="0.23738645"
       rx="2.4027314" />
    <g
       id="g1691"
       transform="matrix(1.7095176,0,0,1.7095176,0.98768964,592.77393)">
      <path
         style="fill:none;stroke:#add7ed;stroke-width:0.5;stroke-linecap:butt;stroke-linejoin:miter;stroke-miterlimit:4;stroke-dasharray:none;stroke-opacity:1"
         d="M 0.53075401,77.234778 C 47.102218,71.623012 45.461582,35.522816 95.832628,52.115438 149.31144,69.731783 161.77209,32.080964 195.45238,21.918785 c 22.36385,-6.747728 41.66758,8.461071 60.18312,9.886124 27.43032,2.111181 48.16542,-20.490671 48.16542,-20.490671"
         id="path1667"
         sodipodi:nodetypes="csssc"
         clip-path="url(#clipPath937)" />
      <path
         style="fill:none;stroke:#ffa8af;stroke-width:0.5;stroke-linecap:butt;stroke-linejoin:miter;stroke-miterlimit:4;stroke-dasharray:none;stroke-opacity:1"
         d="M 0.07608438,92.436402 C 46.647548,86.824633 43.136026,50.457168 93.507072,67.04979 146.98588,84.666135 147.4194,50.22255 181.09969,40.060371 c 22.36385,-6.747728 38.19308,5.788375 56.70862,7.213428 C 265.23863,49.38498 298.021,7.7342739 298.021,7.7342739"
         id="path1669"
         sodipodi:nodetypes="csssc"
         clip-path="url(#clipPath933)" />
      <path
         style="fill:none;stroke:#82db7d;stroke-width:0.5;stroke-linecap:butt;stroke-linejoin:miter;stroke-miterlimit:4;stroke-dasharray:none;stroke-opacity:1"
         d="M 0.41813341,107.99973 C 46.989597,102.38796 37.865415,69.227727 88.236461,85.820349 141.71527,103.4367 136.53613,65.251336 170.21642,55.089157 c 22.36385,-6.747728 46.41146,9.278626 64.45944,-2.408274 23.81247,-15.419678 63.07198,-54.7327813 63.07198,-54.7327813"
         id="path1671"
         sodipodi:nodetypes="csssc"
         clip-path="url(#clipPath929)" />
      <path
         style="fill:none;stroke:#ffe66d;stroke-width:0.5;stroke-linecap:butt;stroke-linejoin:miter;stroke-miterlimit:4;stroke-dasharray:none;stroke-opacity:1"
         d="M -0.1165421,124.70381 C 46.454922,119.09204 37.33074,85.931806 87.701786,102.52443 141.18059,120.14078 131.1906,77.679103 164.87089,67.516924 c 22.36385,-6.747728 34.99255,2.165935 49.75961,-5.615509 26.13602,-18.582852 48.434,-72.347123 85.80534,-55.7478332"
         id="path1673"
         sodipodi:nodetypes="csscc"
         clip-path="url(#clipPath925)" />
      <path
         style="fill:none;stroke:#add7ed;stroke-width:0.5;stroke-linecap:butt;stroke-linejoin:miter;stroke-miterlimit:4;stroke-dasharray:none;stroke-opacity:1"
         d="M 0.53075401,79.351446 C 47.102218,73.73968 45.461582,37.639484 95.832628,54.232106 149.31144,71.848451 161.77209,34.197632 195.45238,24.035453 c 22.36385,-6.747728 41.66758,8.461071 60.18312,9.886124 27.43032,2.111181 46.98424,-17.797591 46.98424,-17.797591"
         id="path1675"
         sodipodi:nodetypes="csssc"
         clip-path="url(#clipPath921)" />
      <path
         style="fill:none;stroke:#ffa8af;stroke-width:0.5;stroke-linecap:butt;stroke-linejoin:miter;stroke-miterlimit:4;stroke-dasharray:none;stroke-opacity:1"
         d="M 0.07608438,95.082237 C 46.647548,89.470468 43.136026,53.103003 93.507072,69.695625 146.98588,87.31197 147.4194,52.868385 181.09969,42.706206 c 22.36385,-6.747728 38.19308,5.788375 56.70862,7.213428 27.43032,2.111181 61.48837,-41.9018779 61.48837,-41.9018779"
         id="path1677"
         sodipodi:nodetypes="csssc"
         clip-path="url(#clipPath917)" />
      <path
         style="fill:none;stroke:#ffe66d;stroke-width:0.5;stroke-linecap:butt;stroke-linejoin:miter;stroke-miterlimit:4;stroke-dasharray:none;stroke-opacity:1"
         d="M -0.1165421,127.34966 C 46.454922,121.73789 37.33074,88.577641 87.701786,105.17028 141.18059,122.78663 131.1906,80.324938 164.87089,70.162759 187.23474,63.415031 199.8959,72.389983 214.6305,64.54725 238.80021,51.609706 267.89804,-12.525955 300.5251,8.1028008"
         id="path1679"
         sodipodi:nodetypes="csscc"
         clip-path="url(#clipPath913)" />
      <path
         style="fill:none;stroke:#82db7d;stroke-width:0.5;stroke-linecap:butt;stroke-linejoin:miter;stroke-miterlimit:4;stroke-dasharray:none;stroke-opacity:1"
         d="M 0.41813341,110.11641 C 46.989597,104.50464 37.865415,71.344395 88.236461,87.937017 141.71527,105.55338 136.53613,67.368004 170.21642,57.205825 c 22.36385,-6.747728 45.80794,8.289151 64.45944,-2.408274 25.18569,-14.445058 63.87517,-56.0556992 63.87517,-56.0556992"
         id="path1681"
         sodipodi:nodetypes="csssc"
         clip-path="url(#clipPath909)" />
      <path
         style="fill:none;stroke:#add7ed;stroke-width:0.5;stroke-linecap:butt;stroke-linejoin:miter;stroke-miterlimit:4;stroke-dasharray:none;stroke-opacity:1"
         d="M 0.53075401,81.997281 C 47.102218,76.385515 45.461582,40.285319 95.832628,56.877941 149.31144,74.494286 161.77209,36.843467 195.45238,26.681288 c 22.36385,-6.747728 41.66758,8.461071 60.18312,9.886124 27.43032,2.111181 47.22048,-18.600792 47.22048,-18.600792"
         id="path1683"
         sodipodi:nodetypes="csssc"
         clip-path="url(#clipPath905)" />
      <path
         style="fill:none;stroke:#ffa8af;stroke-width:0.5;stroke-linecap:butt;stroke-linejoin:miter;stroke-miterlimit:4;stroke-dasharray:none;stroke-opacity:1"
         d="M 0.07608438,97.198905 C 46.647548,91.587136 43.136026,55.219671 93.507072,71.812293 146.98588,89.428638 147.4194,54.985053 181.09969,44.822874 c 22.36385,-6.747728 38.19308,5.788375 56.70862,7.213428 27.43032,2.111181 62.71679,-43.9335012 62.71679,-43.9335012"
         id="path1685"
         sodipodi:nodetypes="csssc"
         clip-path="url(#clipPath901)" />
      <path
         style="fill:none;stroke:#82db7d;stroke-width:0.5;stroke-linecap:butt;stroke-linejoin:miter;stroke-miterlimit:4;stroke-dasharray:none;stroke-opacity:1"
         d="M 0.41813341,112.76226 C 46.989597,107.15049 37.865415,73.99023 88.236461,90.582852 141.71527,108.19923 136.53613,70.013839 170.21642,59.85166 c 22.36385,-6.747728 45.56733,7.858253 64.45944,-2.408274 26.19908,-14.237349 65.24534,-58.8905221 65.24534,-58.8905221"
         id="path1687"
         sodipodi:nodetypes="csssc"
         clip-path="url(#clipPath897)" />
      <path
         style="fill:none;stroke:#ffe66d;stroke-width:0.5;stroke-linecap:butt;stroke-linejoin:miter;stroke-miterlimit:4;stroke-dasharray:none;stroke-opacity:1"
         d="M -0.1165421,129.46634 C 46.454922,123.85457 37.33074,90.694309 87.701786,107.28696 141.18059,124.90331 131.1906,82.441606 164.87089,72.279427 c 22.36385,-6.747728 34.9949,2.170386 49.75961,-5.615509 28.88898,-14.403122 53.31523,-76.967213 85.72924,-57.3799412"
         id="path1689"
         sodipodi:nodetypes="csscc"
         clip-path="url(#clipPath893)" />
    </g>
    <g
       id="g1743"
       transform="matrix(1.7095176,0,0,1.7095176,0.98769741,6.8296843)">
      <path
         style="fill:none;stroke:#add7ed;stroke-width:0.5;stroke-linecap:butt;stroke-linejoin:miter;stroke-miterlimit:4;stroke-dasharray:none;stroke-opacity:1"
         d="M 0.53075401,77.234778 C 47.102218,71.623012 45.461582,35.522816 95.832628,52.115438 149.31144,69.731783 161.77209,32.080964 195.45238,21.918785 c 22.36385,-6.747728 41.66758,8.461071 60.18312,9.886124 27.43032,2.111181 48.16542,-20.490671 48.16542,-20.490671"
         id="path1719"
         sodipodi:nodetypes="csssc"
         clip-path="url(#clipPath937)" />
      <path
         style="fill:none;stroke:#ffa8af;stroke-width:0.5;stroke-linecap:butt;stroke-linejoin:miter;stroke-miterlimit:4;stroke-dasharray:none;stroke-opacity:1"
         d="M 0.07608438,92.436402 C 46.647548,86.824633 43.136026,50.457168 93.507072,67.04979 146.98588,84.666135 147.4194,50.22255 181.09969,40.060371 c 22.36385,-6.747728 38.19308,5.788375 56.70862,7.213428 C 265.23863,49.38498 298.021,7.7342739 298.021,7.7342739"
         id="path1721"
         sodipodi:nodetypes="csssc"
         clip-path="url(#clipPath933)" />
      <path
         style="fill:none;stroke:#82db7d;stroke-width:0.5;stroke-linecap:butt;stroke-linejoin:miter;stroke-miterlimit:4;stroke-dasharray:none;stroke-opacity:1"
         d="M 0.41813341,107.99973 C 46.989597,102.38796 37.865415,69.227727 88.236461,85.820349 141.71527,103.4367 136.53613,65.251336 170.21642,55.089157 c 22.36385,-6.747728 46.41146,9.278626 64.45944,-2.408274 23.81247,-15.419678 63.07198,-54.7327813 63.07198,-54.7327813"
         id="path1723"
         sodipodi:nodetypes="csssc"
         clip-path="url(#clipPath929)" />
      <path
         style="fill:none;stroke:#ffe66d;stroke-width:0.5;stroke-linecap:butt;stroke-linejoin:miter;stroke-miterlimit:4;stroke-dasharray:none;stroke-opacity:1"
         d="M -0.1165421,124.70381 C 46.454922,119.09204 37.33074,85.931806 87.701786,102.52443 141.18059,120.14078 131.1906,77.679103 164.87089,67.516924 c 22.36385,-6.747728 34.99255,2.165935 49.75961,-5.615509 26.13602,-18.582852 48.434,-72.347123 85.80534,-55.7478332"
         id="path1725"
         sodipodi:nodetypes="csscc"
         clip-path="url(#clipPath925)" />
      <path
         style="fill:none;stroke:#add7ed;stroke-width:0.5;stroke-linecap:butt;stroke-linejoin:miter;stroke-miterlimit:4;stroke-dasharray:none;stroke-opacity:1"
         d="M 0.53075401,79.351446 C 47.102218,73.73968 45.461582,37.639484 95.832628,54.232106 149.31144,71.848451 161.77209,34.197632 195.45238,24.035453 c 22.36385,-6.747728 41.66758,8.461071 60.18312,9.886124 27.43032,2.111181 46.98424,-17.797591 46.98424,-17.797591"
         id="path1727"
         sodipodi:nodetypes="csssc"
         clip-path="url(#clipPath921)" />
      <path
         style="fill:none;stroke:#ffa8af;stroke-width:0.5;stroke-linecap:butt;stroke-linejoin:miter;stroke-miterlimit:4;stroke-dasharray:none;stroke-opacity:1"
         d="M 0.07608438,95.082237 C 46.647548,89.470468 43.136026,53.103003 93.507072,69.695625 146.98588,87.31197 147.4194,52.868385 181.09969,42.706206 c 22.36385,-6.747728 38.19308,5.788375 56.70862,7.213428 27.43032,2.111181 61.48837,-41.9018779 61.48837,-41.9018779"
         id="path1729"
         sodipodi:nodetypes="csssc"
         clip-path="url(#clipPath917)" />
      <path
         style="fill:none;stroke:#ffe66d;stroke-width:0.5;stroke-linecap:butt;stroke-linejoin:miter;stroke-miterlimit:4;stroke-dasharray:none;stroke-opacity:1"
         d="M -0.1165421,127.34966 C 46.454922,121.73789 37.33074,88.577641 87.701786,105.17028 141.18059,122.78663 131.1906,80.324938 164.87089,70.162759 187.23474,63.415031 199.8959,72.389983 214.6305,64.54725 238.80021,51.609706 267.89804,-12.525955 300.5251,8.1028008"
         id="path1731"
         sodipodi:nodetypes="csscc"
         clip-path="url(#clipPath913)" />
      <path
         style="fill:none;stroke:#82db7d;stroke-width:0.5;stroke-linecap:butt;stroke-linejoin:miter;stroke-miterlimit:4;stroke-dasharray:none;stroke-opacity:1"
         d="M 0.41813341,110.11641 C 46.989597,104.50464 37.865415,71.344395 88.236461,87.937017 141.71527,105.55338 136.53613,67.368004 170.21642,57.205825 c 22.36385,-6.747728 45.80794,8.289151 64.45944,-2.408274 25.18569,-14.445058 63.87517,-56.0556992 63.87517,-56.0556992"
         id="path1733"
         sodipodi:nodetypes="csssc"
         clip-path="url(#clipPath909)" />
      <path
         style="fill:none;stroke:#add7ed;stroke-width:0.5;stroke-linecap:butt;stroke-linejoin:miter;stroke-miterlimit:4;stroke-dasharray:none;stroke-opacity:1"
         d="M 0.53075401,81.997281 C 47.102218,76.385515 45.461582,40.285319 95.832628,56.877941 149.31144,74.494286 161.77209,36.843467 195.45238,26.681288 c 22.36385,-6.747728 41.66758,8.461071 60.18312,9.886124 27.43032,2.111181 47.22048,-18.600792 47.22048,-18.600792"
         id="path1735"
         sodipodi:nodetypes="csssc"
         clip-path="url(#clipPath905)" />
      <path
         style="fill:none;stroke:#ffa8af;stroke-width:0.5;stroke-linecap:butt;stroke-linejoin:miter;stroke-miterlimit:4;stroke-dasharray:none;stroke-opacity:1"
         d="M 0.07608438,97.198905 C 46.647548,91.587136 43.136026,55.219671 93.507072,71.812293 146.98588,89.428638 147.4194,54.985053 181.09969,44.822874 c 22.36385,-6.747728 38.19308,5.788375 56.70862,7.213428 27.43032,2.111181 62.71679,-43.9335012 62.71679,-43.9335012"
         id="path1737"
         sodipodi:nodetypes="csssc"
         clip-path="url(#clipPath901)" />
      <path
         style="fill:none;stroke:#82db7d;stroke-width:0.5;stroke-linecap:butt;stroke-linejoin:miter;stroke-miterlimit:4;stroke-dasharray:none;stroke-opacity:1"
         d="M 0.41813341,112.76226 C 46.989597,107.15049 37.865415,73.99023 88.236461,90.582852 141.71527,108.19923 136.53613,70.013839 170.21642,59.85166 c 22.36385,-6.747728 45.56733,7.858253 64.45944,-2.408274 26.19908,-14.237349 65.24534,-58.8905221 65.24534,-58.8905221"
         id="path1739"
         sodipodi:nodetypes="csssc"
         clip-path="url(#clipPath897)" />
      <path
         style="fill:none;stroke:#ffe66d;stroke-width:0.5;stroke-linecap:butt;stroke-linejoin:miter;stroke-miterlimit:4;stroke-dasharray:none;stroke-opacity:1"
         d="M -0.1165421,129.46634 C 46.454922,123.85457 37.33074,90.694309 87.701786,107.28696 141.18059,124.90331 131.1906,82.441606 164.87089,72.279427 c 22.36385,-6.747728 34.9949,2.170386 49.75961,-5.615509 28.88898,-14.403122 53.31523,-76.967213 85.72924,-57.3799412"
         id="path1741"
         sodipodi:nodetypes="csscc"
         clip-path="url(#clipPath893)" />
    </g>
  </g>
</svg>
